<?xml version="1.0" encoding="UTF-8" standalone="no"?>
<svg xmlns="http://www.w3.org/2000/svg" width="512" height="512" viewBox="0 0 512 512">
  <!-- Background rounded square -->
  <rect width="512" height="512" rx="80" fill="#4285f4"/>
  
  <!-- QR code pattern -->
  <g fill="white">
    <!-- Top left corner pattern -->
    <rect x="96" y="96" width="128" height="128" rx="16"/>
    <rect x="128" y="128" width="64" height="64" fill="#4285f4"/>
    
    <!-- Top right corner pattern -->
    <rect x="288" y="96" width="128" height="128" rx="16"/>
    <rect x="320" y="128" width="64" height="64" fill="#4285f4"/>
    
    <!-- Bottom left corner pattern -->
    <rect x="96" y="288" width="128" height="128" rx="16"/>
    <rect x="128" y="320" width="64" height="64" fill="#4285f4"/>
    
    <!-- Bottom right - Clipboard icon -->
    <rect x="288" y="288" width="128" height="128" rx="24" fill="white"/>
    <rect x="304" y="312" width="96" height="88" rx="8" fill="#4285f4" stroke="white" stroke-width="4"/>
    <rect x="324" y="288" width="56" height="24" rx="8" fill="#4285f4" stroke="white" stroke-width="4"/>
    
    <!-- QR code additional elements -->
    <rect x="240" y="96" width="32" height="32"/>
    <rect x="96" y="240" width="32" height="32"/>
    <rect x="240" y="240" width="32" height="32"/>
    <rect x="384" y="240" width="32" height="32"/>
    <rect x="240" y="384" width="32" height="32"/>
  </g>
  
  <!-- Arrow indicating conversion -->
  <g fill="white">
    <path d="M256,224 L224,192 L288,192 Z" /> <!-- Down arrow head -->
    <rect x="248" y="160" width="16" height="64" /> <!-- Arrow stem -->
  </g>
</svg>